<svg width="16" height="16" viewBox="0 0 16 16" fill="none" xmlns="http://www.w3.org/2000/svg">
<rect width="16" height="16" rx="3" fill="#9497A5"/>
<path d="M7.58413 7.26766H8.41587C10.1165 7.26766 11.5 8.47684 11.5 9.9631C11.5 11.3241 10.3394 12.4522 8.83785 12.6326V14H7.16215V12.6326C5.66056 12.452 4.5 11.3241 4.5 9.9631H6.17571C6.17571 10.6418 6.80759 11.194 7.58413 11.194H8.41587C9.19241 11.194 9.82429 10.6418 9.82429 9.9631C9.82429 9.28443 9.19241 8.73218 8.41587 8.73218H7.58413C5.88355 8.73218 4.5 7.523 4.5 6.03674C4.5 4.67576 5.66056 3.54763 7.16215 3.36723V2H8.83785V3.36723C10.3394 3.54782 11.5 4.67576 11.5 6.03674H9.82429C9.82429 5.35806 9.19241 4.80582 8.41587 4.80582H7.58413C6.80759 4.80582 6.17571 5.35806 6.17571 6.03674C6.17571 6.71542 6.80759 7.26766 7.58413 7.26766Z" fill="white"/>
</svg>
