<svg width="16" height="16" viewBox="0 0 16 16" fill="none" xmlns="http://www.w3.org/2000/svg">
<rect width="16" height="16" rx="3" fill="#9497A5"/>
<path d="M12.8636 5.75H11.2273V3.5H3.59091C2.99091 3.5 2.5 4.00625 2.5 4.625V10.8125H3.59091C3.59091 11.7463 4.32182 12.5 5.22727 12.5C6.13273 12.5 6.86364 11.7463 6.86364 10.8125H10.1364C10.1364 11.7463 10.8673 12.5 11.7727 12.5C12.6782 12.5 13.4091 11.7463 13.4091 10.8125H14.5V8L12.8636 5.75ZM5.22727 11.6562C4.77455 11.6562 4.40909 11.2794 4.40909 10.8125C4.40909 10.3456 4.77455 9.96875 5.22727 9.96875C5.68 9.96875 6.04545 10.3456 6.04545 10.8125C6.04545 11.2794 5.68 11.6562 5.22727 11.6562ZM12.5909 6.59375L13.66 8H11.2273V6.59375H12.5909ZM11.7727 11.6562C11.32 11.6562 10.9545 11.2794 10.9545 10.8125C10.9545 10.3456 11.32 9.96875 11.7727 9.96875C12.2255 9.96875 12.5909 10.3456 12.5909 10.8125C12.5909 11.2794 12.2255 11.6562 11.7727 11.6562Z" fill="white"/>
</svg>
