<svg width="22" height="18" viewBox="0 0 22 18" fill="none" xmlns="http://www.w3.org/2000/svg">
<path fill-rule="evenodd" clip-rule="evenodd" d="M14.8759 8.08677L7.02995 16L2.00024 16L2.00024 10.8928L9.82916 2.99677L14.8759 8.08677ZM8.45018 17.4082L16.2961 9.49493C17.0691 8.71529 17.0691 7.45825 16.2961 6.67861L11.2494 1.58861C10.467 0.799495 9.19133 0.799495 8.40892 1.58861L0.580003 9.48468C0.208619 9.85925 0.000243473 10.3654 0.000243519 10.8928L0.000244053 17C0.000244101 17.5523 0.44796 18 1.00024 18L7.02994 18C7.56334 18 8.07463 17.7869 8.45018 17.4082ZM11.1021 16.3046L19.25 8.08678L14.0507 2.84292L15.471 1.43476L20.6702 6.67862C21.4433 7.45826 21.4433 8.71529 20.6702 9.49494L12.5223 17.7128L11.1021 16.3046ZM5.09779 12.8851C4.61793 12.4013 3.83995 12.4013 3.3601 12.8851C2.88025 13.3689 2.88025 14.1533 3.3601 14.6371C3.83995 15.121 4.61793 15.121 5.09779 14.6371C5.57763 14.1533 5.57763 13.3689 5.09779 12.8851Z" fill="#9497A5"/>
</svg>
